<mxfile host="Electron" agent="Mozilla/5.0 (Windows NT 10.0; Win64; x64) AppleWebKit/537.36 (KHTML, like Gecko) draw.io/25.0.2 Chrome/128.0.6613.186 Electron/32.2.5 Safari/537.36" version="25.0.2">
  <diagram id="C5RBs43oDa-KdzZeNtuy" name="Page-1">
    <mxGraphModel dx="5867" dy="4716" grid="1" gridSize="10" guides="1" tooltips="1" connect="1" arrows="1" fold="1" page="1" pageScale="1" pageWidth="827" pageHeight="1169" math="0" shadow="0">
      <root>
        <mxCell id="WIyWlLk6GJQsqaUBKTNV-0" />
        <mxCell id="WIyWlLk6GJQsqaUBKTNV-1" parent="WIyWlLk6GJQsqaUBKTNV-0" />
        <mxCell id="DxKRx8n1fIahk_dRX5iY-1" value="Activity Flow Diagram" style="swimlane;childLayout=stackLayout;resizeParent=1;resizeParentMax=0;startSize=20;horizontal=0;horizontalStack=1;strokeWidth=2;shadow=1;textShadow=0;" vertex="1" parent="WIyWlLk6GJQsqaUBKTNV-1">
          <mxGeometry x="441" y="-720" width="800" height="1160" as="geometry" />
        </mxCell>
        <mxCell id="DxKRx8n1fIahk_dRX5iY-2" value="User" style="swimlane;startSize=20;" vertex="1" parent="DxKRx8n1fIahk_dRX5iY-1">
          <mxGeometry x="20" width="120" height="1160" as="geometry" />
        </mxCell>
        <mxCell id="DxKRx8n1fIahk_dRX5iY-8" value="Register/Login" style="rounded=0;whiteSpace=wrap;html=1;strokeWidth=2;shadow=1;fontStyle=1;fontSize=12;fillColor=#fff2cc;strokeColor=#d6b656;" vertex="1" parent="DxKRx8n1fIahk_dRX5iY-2">
          <mxGeometry x="10" y="30" width="100" height="40" as="geometry" />
        </mxCell>
        <mxCell id="DxKRx8n1fIahk_dRX5iY-123" value="" style="endArrow=classic;html=1;rounded=0;exitX=0;exitY=0.5;exitDx=0;exitDy=0;strokeWidth=2;endSize=14;" edge="1" parent="DxKRx8n1fIahk_dRX5iY-2" source="DxKRx8n1fIahk_dRX5iY-97">
          <mxGeometry width="50" height="50" relative="1" as="geometry">
            <mxPoint x="90" y="744" as="sourcePoint" />
            <mxPoint x="180" y="620" as="targetPoint" />
            <Array as="points">
              <mxPoint x="70" y="830" />
              <mxPoint x="70" y="580" />
              <mxPoint x="180" y="580" />
            </Array>
          </mxGeometry>
        </mxCell>
        <mxCell id="DxKRx8n1fIahk_dRX5iY-3" value="Admin" style="swimlane;startSize=20;" vertex="1" parent="DxKRx8n1fIahk_dRX5iY-1">
          <mxGeometry x="140" width="120" height="1160" as="geometry" />
        </mxCell>
        <mxCell id="DxKRx8n1fIahk_dRX5iY-89" value="Moderate Content" style="rounded=0;whiteSpace=wrap;html=1;strokeWidth=2;shadow=1;fontStyle=1;fontSize=12;fillColor=#fff2cc;strokeColor=#d6b656;" vertex="1" parent="DxKRx8n1fIahk_dRX5iY-3">
          <mxGeometry x="10" y="400" width="100" height="40" as="geometry" />
        </mxCell>
        <mxCell id="DxKRx8n1fIahk_dRX5iY-93" value="Monitor Platform Analytics" style="rounded=0;whiteSpace=wrap;html=1;strokeWidth=2;shadow=1;fontStyle=1;fontSize=12;fillColor=#fff2cc;strokeColor=#d6b656;" vertex="1" parent="DxKRx8n1fIahk_dRX5iY-3">
          <mxGeometry x="10" y="94" width="100" height="40" as="geometry" />
        </mxCell>
        <mxCell id="DxKRx8n1fIahk_dRX5iY-95" value="Dispute Raised?" style="rhombus;whiteSpace=wrap;html=1;fontStyle=1;strokeWidth=2;shadow=1;fillColor=#f8cecc;strokeColor=#b85450;" vertex="1" parent="DxKRx8n1fIahk_dRX5iY-3">
          <mxGeometry x="20" y="621" width="80" height="80" as="geometry" />
        </mxCell>
        <mxCell id="DxKRx8n1fIahk_dRX5iY-97" value="Resolve Dispute" style="rounded=0;whiteSpace=wrap;html=1;strokeWidth=2;shadow=1;fontStyle=1;fontSize=12;fillColor=#fff2cc;strokeColor=#d6b656;" vertex="1" parent="DxKRx8n1fIahk_dRX5iY-3">
          <mxGeometry x="10" y="811" width="100" height="40" as="geometry" />
        </mxCell>
        <mxCell id="DxKRx8n1fIahk_dRX5iY-99" value="" style="endArrow=classic;html=1;rounded=0;exitX=0;exitY=0.5;exitDx=0;exitDy=0;strokeWidth=2;endSize=14;entryX=0.5;entryY=0;entryDx=0;entryDy=0;" edge="1" parent="DxKRx8n1fIahk_dRX5iY-3" source="DxKRx8n1fIahk_dRX5iY-95" target="DxKRx8n1fIahk_dRX5iY-97">
          <mxGeometry width="50" height="50" relative="1" as="geometry">
            <mxPoint x="240" y="571" as="sourcePoint" />
            <mxPoint x="433" y="571" as="targetPoint" />
            <Array as="points">
              <mxPoint x="10" y="661" />
              <mxPoint x="10" y="781" />
              <mxPoint x="60" y="781" />
            </Array>
          </mxGeometry>
        </mxCell>
        <mxCell id="DxKRx8n1fIahk_dRX5iY-100" value="Yes" style="text;html=1;align=center;verticalAlign=middle;resizable=0;points=[];autosize=1;strokeColor=none;fillColor=none;fontStyle=1;textShadow=1;" vertex="1" parent="DxKRx8n1fIahk_dRX5iY-3">
          <mxGeometry x="3" y="676" width="40" height="30" as="geometry" />
        </mxCell>
        <mxCell id="DxKRx8n1fIahk_dRX5iY-108" value="NO" style="text;html=1;align=center;verticalAlign=middle;resizable=0;points=[];autosize=1;strokeColor=none;fillColor=none;fontStyle=1;textShadow=1;" vertex="1" parent="DxKRx8n1fIahk_dRX5iY-3">
          <mxGeometry x="53" y="738" width="40" height="30" as="geometry" />
        </mxCell>
        <mxCell id="DxKRx8n1fIahk_dRX5iY-110" value="Ensure Payment Security" style="rounded=0;whiteSpace=wrap;html=1;strokeWidth=2;shadow=1;fontStyle=1;fontSize=12;fillColor=#fff2cc;strokeColor=#d6b656;" vertex="1" parent="DxKRx8n1fIahk_dRX5iY-3">
          <mxGeometry x="10" y="880" width="100" height="40" as="geometry" />
        </mxCell>
        <mxCell id="DxKRx8n1fIahk_dRX5iY-117" value="Ensure Payment Security" style="rounded=0;whiteSpace=wrap;html=1;strokeWidth=2;shadow=1;fontStyle=1;fontSize=12;fillColor=#fff2cc;strokeColor=#d6b656;" vertex="1" parent="DxKRx8n1fIahk_dRX5iY-3">
          <mxGeometry x="10" y="970" width="100" height="40" as="geometry" />
        </mxCell>
        <mxCell id="DxKRx8n1fIahk_dRX5iY-118" value="" style="endArrow=classic;html=1;rounded=0;exitX=0.5;exitY=1;exitDx=0;exitDy=0;entryX=0.5;entryY=0;entryDx=0;entryDy=0;strokeWidth=2;endSize=14;" edge="1" parent="DxKRx8n1fIahk_dRX5iY-3" source="DxKRx8n1fIahk_dRX5iY-110" target="DxKRx8n1fIahk_dRX5iY-117">
          <mxGeometry width="50" height="50" relative="1" as="geometry">
            <mxPoint x="150" y="920" as="sourcePoint" />
            <mxPoint x="150" y="990" as="targetPoint" />
          </mxGeometry>
        </mxCell>
        <mxCell id="DxKRx8n1fIahk_dRX5iY-122" value="" style="endArrow=classic;html=1;rounded=0;exitX=0.5;exitY=1;exitDx=0;exitDy=0;strokeWidth=2;endSize=14;" edge="1" parent="DxKRx8n1fIahk_dRX5iY-3" source="DxKRx8n1fIahk_dRX5iY-93" target="DxKRx8n1fIahk_dRX5iY-89">
          <mxGeometry width="50" height="50" relative="1" as="geometry">
            <mxPoint x="43" y="220" as="sourcePoint" />
            <mxPoint x="43" y="280" as="targetPoint" />
          </mxGeometry>
        </mxCell>
        <mxCell id="DxKRx8n1fIahk_dRX5iY-4" value="Client" style="swimlane;startSize=20;" vertex="1" parent="DxKRx8n1fIahk_dRX5iY-1">
          <mxGeometry x="260" width="120" height="1160" as="geometry" />
        </mxCell>
        <mxCell id="DxKRx8n1fIahk_dRX5iY-16" value="Make Client Profile" style="rounded=0;whiteSpace=wrap;html=1;strokeWidth=2;shadow=1;fontStyle=1;fontSize=12;fillColor=#fff2cc;strokeColor=#d6b656;" vertex="1" parent="DxKRx8n1fIahk_dRX5iY-4">
          <mxGeometry x="10" y="241" width="100" height="40" as="geometry" />
        </mxCell>
        <mxCell id="DxKRx8n1fIahk_dRX5iY-25" value="Post Job" style="rounded=0;whiteSpace=wrap;html=1;strokeWidth=2;shadow=1;fontStyle=1;fontSize=12;fillColor=#fff2cc;strokeColor=#d6b656;" vertex="1" parent="DxKRx8n1fIahk_dRX5iY-4">
          <mxGeometry x="10" y="341" width="100" height="40" as="geometry" />
        </mxCell>
        <mxCell id="DxKRx8n1fIahk_dRX5iY-27" value="" style="endArrow=classic;html=1;rounded=0;exitX=0.5;exitY=1;exitDx=0;exitDy=0;entryX=0.5;entryY=0;entryDx=0;entryDy=0;strokeWidth=2;endSize=14;" edge="1" parent="DxKRx8n1fIahk_dRX5iY-4" source="DxKRx8n1fIahk_dRX5iY-16" target="DxKRx8n1fIahk_dRX5iY-25">
          <mxGeometry width="50" height="50" relative="1" as="geometry">
            <mxPoint x="253" y="191" as="sourcePoint" />
            <mxPoint x="313" y="191" as="targetPoint" />
          </mxGeometry>
        </mxCell>
        <mxCell id="DxKRx8n1fIahk_dRX5iY-34" value="Review Bid" style="rounded=0;whiteSpace=wrap;html=1;strokeWidth=2;shadow=1;fontStyle=1;fontSize=12;fillColor=#fff2cc;strokeColor=#d6b656;" vertex="1" parent="DxKRx8n1fIahk_dRX5iY-4">
          <mxGeometry x="10" y="431" width="100" height="40" as="geometry" />
        </mxCell>
        <mxCell id="DxKRx8n1fIahk_dRX5iY-124" value="" style="edgeStyle=orthogonalEdgeStyle;rounded=0;orthogonalLoop=1;jettySize=auto;html=1;" edge="1" parent="DxKRx8n1fIahk_dRX5iY-4" source="DxKRx8n1fIahk_dRX5iY-36" target="DxKRx8n1fIahk_dRX5iY-34">
          <mxGeometry relative="1" as="geometry" />
        </mxCell>
        <mxCell id="DxKRx8n1fIahk_dRX5iY-36" value="Assign Job" style="rounded=0;whiteSpace=wrap;html=1;strokeWidth=2;shadow=1;fontStyle=1;fontSize=12;fillColor=#fff2cc;strokeColor=#d6b656;" vertex="1" parent="DxKRx8n1fIahk_dRX5iY-4">
          <mxGeometry x="10" y="541" width="100" height="40" as="geometry" />
        </mxCell>
        <mxCell id="DxKRx8n1fIahk_dRX5iY-37" value="" style="endArrow=classic;html=1;rounded=0;exitX=0.5;exitY=1;exitDx=0;exitDy=0;entryX=0.5;entryY=0;entryDx=0;entryDy=0;strokeWidth=2;endSize=14;" edge="1" parent="DxKRx8n1fIahk_dRX5iY-4" source="DxKRx8n1fIahk_dRX5iY-34" target="DxKRx8n1fIahk_dRX5iY-36">
          <mxGeometry width="50" height="50" relative="1" as="geometry">
            <mxPoint x="70" y="291" as="sourcePoint" />
            <mxPoint x="70" y="351" as="targetPoint" />
          </mxGeometry>
        </mxCell>
        <mxCell id="DxKRx8n1fIahk_dRX5iY-40" value="Approve Milestones" style="rounded=0;whiteSpace=wrap;html=1;strokeWidth=2;shadow=1;fontStyle=1;fontSize=12;fillColor=#fff2cc;strokeColor=#d6b656;" vertex="1" parent="DxKRx8n1fIahk_dRX5iY-4">
          <mxGeometry x="10" y="641" width="100" height="40" as="geometry" />
        </mxCell>
        <mxCell id="DxKRx8n1fIahk_dRX5iY-121" value="Leave Review" style="ellipse;whiteSpace=wrap;html=1;fillColor=#647687;fontColor=#ffffff;strokeColor=#314354;strokeWidth=3;fontStyle=1" vertex="1" parent="DxKRx8n1fIahk_dRX5iY-4">
          <mxGeometry x="18.75" y="1025" width="82.5" height="50" as="geometry" />
        </mxCell>
        <mxCell id="DxKRx8n1fIahk_dRX5iY-5" value="System" style="swimlane;startSize=20;" vertex="1" parent="DxKRx8n1fIahk_dRX5iY-1">
          <mxGeometry x="380" width="165" height="1160" as="geometry" />
        </mxCell>
        <mxCell id="DxKRx8n1fIahk_dRX5iY-13" value="User Type?" style="rhombus;whiteSpace=wrap;html=1;fontStyle=1;strokeWidth=2;shadow=1;fillColor=#f8cecc;strokeColor=#b85450;" vertex="1" parent="DxKRx8n1fIahk_dRX5iY-5">
          <mxGeometry x="42.5" y="141" width="80" height="80" as="geometry" />
        </mxCell>
        <mxCell id="DxKRx8n1fIahk_dRX5iY-19" value="Client" style="text;html=1;align=center;verticalAlign=middle;resizable=0;points=[];autosize=1;strokeColor=none;fillColor=none;fontStyle=1;textShadow=1;" vertex="1" parent="DxKRx8n1fIahk_dRX5iY-5">
          <mxGeometry x="10" y="231" width="50" height="30" as="geometry" />
        </mxCell>
        <mxCell id="DxKRx8n1fIahk_dRX5iY-22" value="Freelancer" style="text;html=1;align=center;verticalAlign=middle;resizable=0;points=[];autosize=1;strokeColor=none;fillColor=none;fontStyle=1;textShadow=1;" vertex="1" parent="DxKRx8n1fIahk_dRX5iY-5">
          <mxGeometry x="100" y="150" width="80" height="30" as="geometry" />
        </mxCell>
        <mxCell id="DxKRx8n1fIahk_dRX5iY-23" value="Notify Freelancers" style="rounded=0;whiteSpace=wrap;html=1;strokeWidth=2;shadow=1;fontStyle=1;fontSize=12;fillColor=#fff2cc;strokeColor=#d6b656;" vertex="1" parent="DxKRx8n1fIahk_dRX5iY-5">
          <mxGeometry x="32.5" y="341" width="100" height="40" as="geometry" />
        </mxCell>
        <mxCell id="DxKRx8n1fIahk_dRX5iY-112" value="Start" style="ellipse;whiteSpace=wrap;html=1;fillColor=#a20025;fontColor=#ffffff;strokeColor=#6F0000;strokeWidth=3;fontStyle=1" vertex="1" parent="DxKRx8n1fIahk_dRX5iY-5">
          <mxGeometry x="50" y="30" width="65" height="40" as="geometry" />
        </mxCell>
        <mxCell id="DxKRx8n1fIahk_dRX5iY-115" value="Admin" style="text;html=1;align=center;verticalAlign=middle;resizable=0;points=[];autosize=1;strokeColor=none;fillColor=none;fontStyle=1;textShadow=1;" vertex="1" parent="DxKRx8n1fIahk_dRX5iY-5">
          <mxGeometry x="20" y="89" width="60" height="30" as="geometry" />
        </mxCell>
        <mxCell id="DxKRx8n1fIahk_dRX5iY-6" value="Freelancer" style="swimlane;startSize=20;" vertex="1" parent="DxKRx8n1fIahk_dRX5iY-1">
          <mxGeometry x="545" width="135" height="1160" as="geometry" />
        </mxCell>
        <mxCell id="DxKRx8n1fIahk_dRX5iY-20" value="Make Freelancer Profile" style="rounded=0;whiteSpace=wrap;html=1;strokeWidth=2;shadow=1;fontStyle=1;fontSize=12;fillColor=#fff2cc;strokeColor=#d6b656;" vertex="1" parent="DxKRx8n1fIahk_dRX5iY-6">
          <mxGeometry x="17.5" y="161" width="100" height="40" as="geometry" />
        </mxCell>
        <mxCell id="DxKRx8n1fIahk_dRX5iY-29" value="View Jobs" style="rounded=0;whiteSpace=wrap;html=1;strokeWidth=2;shadow=1;fontStyle=1;fontSize=12;fillColor=#fff2cc;strokeColor=#d6b656;" vertex="1" parent="DxKRx8n1fIahk_dRX5iY-6">
          <mxGeometry x="17.5" y="341" width="100" height="40" as="geometry" />
        </mxCell>
        <mxCell id="DxKRx8n1fIahk_dRX5iY-30" value="" style="endArrow=classic;html=1;rounded=0;exitX=0.5;exitY=1;exitDx=0;exitDy=0;entryX=0.5;entryY=0;entryDx=0;entryDy=0;strokeWidth=2;endSize=14;" edge="1" parent="DxKRx8n1fIahk_dRX5iY-6" source="DxKRx8n1fIahk_dRX5iY-20" target="DxKRx8n1fIahk_dRX5iY-29">
          <mxGeometry width="50" height="50" relative="1" as="geometry">
            <mxPoint x="35" y="251" as="sourcePoint" />
            <mxPoint x="78" y="251" as="targetPoint" />
          </mxGeometry>
        </mxCell>
        <mxCell id="DxKRx8n1fIahk_dRX5iY-32" value="Submit Bid" style="rounded=0;whiteSpace=wrap;html=1;strokeWidth=2;shadow=1;fontStyle=1;fontSize=12;fillColor=#fff2cc;strokeColor=#d6b656;" vertex="1" parent="DxKRx8n1fIahk_dRX5iY-6">
          <mxGeometry x="17.5" y="431" width="100" height="40" as="geometry" />
        </mxCell>
        <mxCell id="DxKRx8n1fIahk_dRX5iY-33" value="" style="endArrow=classic;html=1;rounded=0;exitX=0.5;exitY=1;exitDx=0;exitDy=0;entryX=0.5;entryY=0;entryDx=0;entryDy=0;strokeWidth=2;endSize=14;" edge="1" parent="DxKRx8n1fIahk_dRX5iY-6" source="DxKRx8n1fIahk_dRX5iY-29" target="DxKRx8n1fIahk_dRX5iY-32">
          <mxGeometry width="50" height="50" relative="1" as="geometry">
            <mxPoint x="-22" y="371" as="sourcePoint" />
            <mxPoint x="28" y="371" as="targetPoint" />
          </mxGeometry>
        </mxCell>
        <mxCell id="DxKRx8n1fIahk_dRX5iY-38" value="Work on Project" style="rounded=0;whiteSpace=wrap;html=1;strokeWidth=2;shadow=1;fontStyle=1;fontSize=12;fillColor=#fff2cc;strokeColor=#d6b656;" vertex="1" parent="DxKRx8n1fIahk_dRX5iY-6">
          <mxGeometry x="17.5" y="541" width="100" height="40" as="geometry" />
        </mxCell>
        <mxCell id="DxKRx8n1fIahk_dRX5iY-125" value="Leave Review" style="ellipse;whiteSpace=wrap;html=1;fillColor=#647687;fontColor=#ffffff;strokeColor=#314354;strokeWidth=3;fontStyle=1" vertex="1" parent="DxKRx8n1fIahk_dRX5iY-6">
          <mxGeometry x="26.25" y="1075" width="82.5" height="50" as="geometry" />
        </mxCell>
        <mxCell id="DxKRx8n1fIahk_dRX5iY-11" value="" style="endArrow=classic;html=1;rounded=0;exitX=0;exitY=0.5;exitDx=0;exitDy=0;entryX=1;entryY=0.5;entryDx=0;entryDy=0;strokeWidth=2;endSize=14;" edge="1" parent="DxKRx8n1fIahk_dRX5iY-1" source="DxKRx8n1fIahk_dRX5iY-112" target="DxKRx8n1fIahk_dRX5iY-8">
          <mxGeometry width="50" height="50" relative="1" as="geometry">
            <mxPoint x="453.5" y="50" as="sourcePoint" />
            <mxPoint x="340" y="220" as="targetPoint" />
          </mxGeometry>
        </mxCell>
        <mxCell id="DxKRx8n1fIahk_dRX5iY-14" value="" style="endArrow=classic;html=1;rounded=0;exitX=0.5;exitY=1;exitDx=0;exitDy=0;entryX=0;entryY=0.5;entryDx=0;entryDy=0;strokeWidth=2;endSize=14;" edge="1" parent="DxKRx8n1fIahk_dRX5iY-1" source="DxKRx8n1fIahk_dRX5iY-8" target="DxKRx8n1fIahk_dRX5iY-13">
          <mxGeometry width="50" height="50" relative="1" as="geometry">
            <mxPoint x="280" y="170" as="sourcePoint" />
            <mxPoint x="100" y="170" as="targetPoint" />
            <Array as="points">
              <mxPoint x="80" y="180" />
            </Array>
          </mxGeometry>
        </mxCell>
        <mxCell id="DxKRx8n1fIahk_dRX5iY-15" value="Payment Gateway" style="swimlane;startSize=20;" vertex="1" parent="DxKRx8n1fIahk_dRX5iY-1">
          <mxGeometry x="680" width="120" height="1160" as="geometry" />
        </mxCell>
        <mxCell id="DxKRx8n1fIahk_dRX5iY-42" value="Process Payment" style="rounded=0;whiteSpace=wrap;html=1;strokeWidth=2;shadow=1;fontStyle=1;fontSize=12;fillColor=#fff2cc;strokeColor=#d6b656;" vertex="1" parent="DxKRx8n1fIahk_dRX5iY-15">
          <mxGeometry x="10" y="744" width="100" height="40" as="geometry" />
        </mxCell>
        <mxCell id="DxKRx8n1fIahk_dRX5iY-17" value="" style="endArrow=classic;html=1;rounded=0;exitX=0.5;exitY=1;exitDx=0;exitDy=0;entryX=1;entryY=0.5;entryDx=0;entryDy=0;strokeWidth=2;endSize=14;" edge="1" parent="DxKRx8n1fIahk_dRX5iY-1" source="DxKRx8n1fIahk_dRX5iY-13" target="DxKRx8n1fIahk_dRX5iY-16">
          <mxGeometry width="50" height="50" relative="1" as="geometry">
            <mxPoint x="490" y="281" as="sourcePoint" />
            <mxPoint x="175" y="281" as="targetPoint" />
            <Array as="points">
              <mxPoint x="463" y="261" />
            </Array>
          </mxGeometry>
        </mxCell>
        <mxCell id="DxKRx8n1fIahk_dRX5iY-21" value="" style="endArrow=classic;html=1;rounded=0;exitX=1;exitY=0.5;exitDx=0;exitDy=0;entryX=0;entryY=0.5;entryDx=0;entryDy=0;strokeWidth=2;endSize=14;" edge="1" parent="DxKRx8n1fIahk_dRX5iY-1" source="DxKRx8n1fIahk_dRX5iY-13" target="DxKRx8n1fIahk_dRX5iY-20">
          <mxGeometry width="50" height="50" relative="1" as="geometry">
            <mxPoint x="455" y="111" as="sourcePoint" />
            <mxPoint x="140" y="111" as="targetPoint" />
          </mxGeometry>
        </mxCell>
        <mxCell id="DxKRx8n1fIahk_dRX5iY-28" value="" style="endArrow=classic;html=1;rounded=0;exitX=1;exitY=0.5;exitDx=0;exitDy=0;entryX=0;entryY=0.5;entryDx=0;entryDy=0;strokeWidth=2;endSize=14;" edge="1" parent="DxKRx8n1fIahk_dRX5iY-1" source="DxKRx8n1fIahk_dRX5iY-25" target="DxKRx8n1fIahk_dRX5iY-23">
          <mxGeometry width="50" height="50" relative="1" as="geometry">
            <mxPoint x="330" y="291" as="sourcePoint" />
            <mxPoint x="330" y="351" as="targetPoint" />
          </mxGeometry>
        </mxCell>
        <mxCell id="DxKRx8n1fIahk_dRX5iY-31" value="" style="endArrow=classic;html=1;rounded=0;exitX=1;exitY=0.5;exitDx=0;exitDy=0;entryX=0;entryY=0.5;entryDx=0;entryDy=0;strokeWidth=2;endSize=14;" edge="1" parent="DxKRx8n1fIahk_dRX5iY-1" source="DxKRx8n1fIahk_dRX5iY-23" target="DxKRx8n1fIahk_dRX5iY-29">
          <mxGeometry width="50" height="50" relative="1" as="geometry">
            <mxPoint x="390" y="381" as="sourcePoint" />
            <mxPoint x="433" y="381" as="targetPoint" />
          </mxGeometry>
        </mxCell>
        <mxCell id="DxKRx8n1fIahk_dRX5iY-35" value="" style="endArrow=classic;html=1;rounded=0;exitX=0;exitY=0.5;exitDx=0;exitDy=0;entryX=1;entryY=0.5;entryDx=0;entryDy=0;strokeWidth=2;endSize=14;exitPerimeter=0;" edge="1" parent="DxKRx8n1fIahk_dRX5iY-1" source="DxKRx8n1fIahk_dRX5iY-32" target="DxKRx8n1fIahk_dRX5iY-34">
          <mxGeometry width="50" height="50" relative="1" as="geometry">
            <mxPoint x="623" y="211" as="sourcePoint" />
            <mxPoint x="623" y="351" as="targetPoint" />
          </mxGeometry>
        </mxCell>
        <mxCell id="DxKRx8n1fIahk_dRX5iY-39" value="" style="endArrow=classic;html=1;rounded=0;exitX=1;exitY=0.5;exitDx=0;exitDy=0;strokeWidth=2;endSize=14;entryX=0;entryY=0.5;entryDx=0;entryDy=0;" edge="1" parent="DxKRx8n1fIahk_dRX5iY-1" source="DxKRx8n1fIahk_dRX5iY-36" target="DxKRx8n1fIahk_dRX5iY-38">
          <mxGeometry width="50" height="50" relative="1" as="geometry">
            <mxPoint x="573" y="461" as="sourcePoint" />
            <mxPoint x="500" y="561" as="targetPoint" />
          </mxGeometry>
        </mxCell>
        <mxCell id="DxKRx8n1fIahk_dRX5iY-41" value="" style="endArrow=classic;html=1;rounded=0;strokeWidth=2;endSize=14;entryX=1;entryY=0.5;entryDx=0;entryDy=0;exitX=0.5;exitY=1;exitDx=0;exitDy=0;" edge="1" parent="DxKRx8n1fIahk_dRX5iY-1" source="DxKRx8n1fIahk_dRX5iY-38" target="DxKRx8n1fIahk_dRX5iY-40">
          <mxGeometry width="50" height="50" relative="1" as="geometry">
            <mxPoint x="480" y="691" as="sourcePoint" />
            <mxPoint x="573" y="571" as="targetPoint" />
            <Array as="points">
              <mxPoint x="613" y="661" />
            </Array>
          </mxGeometry>
        </mxCell>
        <mxCell id="DxKRx8n1fIahk_dRX5iY-43" value="" style="endArrow=classic;html=1;rounded=0;exitX=0.5;exitY=1;exitDx=0;exitDy=0;strokeWidth=2;endSize=14;entryX=0.5;entryY=0;entryDx=0;entryDy=0;" edge="1" parent="DxKRx8n1fIahk_dRX5iY-1" source="DxKRx8n1fIahk_dRX5iY-40" target="DxKRx8n1fIahk_dRX5iY-42">
          <mxGeometry width="50" height="50" relative="1" as="geometry">
            <mxPoint x="380" y="571" as="sourcePoint" />
            <mxPoint x="573" y="571" as="targetPoint" />
            <Array as="points">
              <mxPoint x="320" y="711" />
              <mxPoint x="740" y="711" />
            </Array>
          </mxGeometry>
        </mxCell>
        <mxCell id="DxKRx8n1fIahk_dRX5iY-46" value="" style="endArrow=classic;html=1;rounded=0;strokeWidth=2;endSize=14;exitX=0.75;exitY=1;exitDx=0;exitDy=0;entryX=0.5;entryY=0;entryDx=0;entryDy=0;" edge="1" parent="DxKRx8n1fIahk_dRX5iY-1" source="DxKRx8n1fIahk_dRX5iY-42" target="DxKRx8n1fIahk_dRX5iY-121">
          <mxGeometry width="50" height="50" relative="1" as="geometry">
            <mxPoint x="660" y="804" as="sourcePoint" />
            <mxPoint x="320" y="1000" as="targetPoint" />
            <Array as="points">
              <mxPoint x="765" y="950" />
              <mxPoint x="320" y="950" />
            </Array>
          </mxGeometry>
        </mxCell>
        <mxCell id="DxKRx8n1fIahk_dRX5iY-88" value="" style="endArrow=classic;html=1;rounded=0;exitX=0.75;exitY=1;exitDx=0;exitDy=0;strokeWidth=2;endSize=14;entryX=0.5;entryY=0;entryDx=0;entryDy=0;" edge="1" parent="DxKRx8n1fIahk_dRX5iY-1" source="DxKRx8n1fIahk_dRX5iY-42" target="DxKRx8n1fIahk_dRX5iY-125">
          <mxGeometry width="50" height="50" relative="1" as="geometry">
            <mxPoint x="412.5" y="864" as="sourcePoint" />
            <mxPoint x="612.5" y="1080" as="targetPoint" />
            <Array as="points">
              <mxPoint x="765" y="1000" />
              <mxPoint x="613" y="1000" />
            </Array>
          </mxGeometry>
        </mxCell>
        <mxCell id="DxKRx8n1fIahk_dRX5iY-92" value="" style="endArrow=classic;html=1;rounded=0;exitX=1;exitY=0.5;exitDx=0;exitDy=0;strokeWidth=2;endSize=14;entryX=0.5;entryY=1;entryDx=0;entryDy=0;" edge="1" parent="DxKRx8n1fIahk_dRX5iY-1" source="DxKRx8n1fIahk_dRX5iY-89" target="DxKRx8n1fIahk_dRX5iY-25">
          <mxGeometry width="50" height="50" relative="1" as="geometry">
            <mxPoint x="330" y="291" as="sourcePoint" />
            <mxPoint x="400" y="401" as="targetPoint" />
            <Array as="points">
              <mxPoint x="320" y="420" />
            </Array>
          </mxGeometry>
        </mxCell>
        <mxCell id="DxKRx8n1fIahk_dRX5iY-96" value="" style="endArrow=classic;html=1;rounded=0;exitX=0;exitY=0.5;exitDx=0;exitDy=0;entryX=1;entryY=0.5;entryDx=0;entryDy=0;strokeWidth=2;endSize=14;" edge="1" parent="DxKRx8n1fIahk_dRX5iY-1" source="DxKRx8n1fIahk_dRX5iY-40" target="DxKRx8n1fIahk_dRX5iY-95">
          <mxGeometry width="50" height="50" relative="1" as="geometry">
            <mxPoint x="330" y="481" as="sourcePoint" />
            <mxPoint x="330" y="551" as="targetPoint" />
          </mxGeometry>
        </mxCell>
        <mxCell id="DxKRx8n1fIahk_dRX5iY-98" value="" style="endArrow=classic;html=1;rounded=0;exitX=0.5;exitY=1;exitDx=0;exitDy=0;strokeWidth=2;endSize=14;entryX=0;entryY=0.5;entryDx=0;entryDy=0;" edge="1" parent="DxKRx8n1fIahk_dRX5iY-1" source="DxKRx8n1fIahk_dRX5iY-95" target="DxKRx8n1fIahk_dRX5iY-42">
          <mxGeometry width="50" height="50" relative="1" as="geometry">
            <mxPoint x="380" y="571" as="sourcePoint" />
            <mxPoint x="573" y="571" as="targetPoint" />
            <Array as="points">
              <mxPoint x="200" y="764" />
            </Array>
          </mxGeometry>
        </mxCell>
        <mxCell id="DxKRx8n1fIahk_dRX5iY-111" value="" style="endArrow=classic;html=1;rounded=0;strokeWidth=2;endSize=14;exitX=1;exitY=0.5;exitDx=0;exitDy=0;entryX=0.25;entryY=1;entryDx=0;entryDy=0;" edge="1" parent="DxKRx8n1fIahk_dRX5iY-1" source="DxKRx8n1fIahk_dRX5iY-110" target="DxKRx8n1fIahk_dRX5iY-42">
          <mxGeometry width="50" height="50" relative="1" as="geometry">
            <mxPoint x="734" y="801" as="sourcePoint" />
            <mxPoint x="765" y="1121" as="targetPoint" />
            <Array as="points">
              <mxPoint x="715" y="900" />
            </Array>
          </mxGeometry>
        </mxCell>
        <mxCell id="DxKRx8n1fIahk_dRX5iY-113" value="" style="endArrow=classic;html=1;rounded=0;exitX=0.5;exitY=0;exitDx=0;exitDy=0;entryX=1;entryY=0.5;entryDx=0;entryDy=0;strokeWidth=2;endSize=14;" edge="1" parent="DxKRx8n1fIahk_dRX5iY-1" source="DxKRx8n1fIahk_dRX5iY-13" target="DxKRx8n1fIahk_dRX5iY-93">
          <mxGeometry width="50" height="50" relative="1" as="geometry">
            <mxPoint x="437.5" y="110" as="sourcePoint" />
            <mxPoint x="487.5" y="110" as="targetPoint" />
            <Array as="points">
              <mxPoint x="463" y="114" />
            </Array>
          </mxGeometry>
        </mxCell>
        <mxCell id="DxKRx8n1fIahk_dRX5iY-119" value="" style="endArrow=classic;html=1;rounded=0;exitX=0.5;exitY=1;exitDx=0;exitDy=0;entryX=0;entryY=0.5;entryDx=0;entryDy=0;strokeWidth=2;endSize=14;" edge="1" parent="DxKRx8n1fIahk_dRX5iY-1" source="DxKRx8n1fIahk_dRX5iY-117" target="DxKRx8n1fIahk_dRX5iY-121">
          <mxGeometry width="50" height="50" relative="1" as="geometry">
            <mxPoint x="210" y="930" as="sourcePoint" />
            <mxPoint x="270" y="1050" as="targetPoint" />
            <Array as="points">
              <mxPoint x="200" y="1050" />
            </Array>
          </mxGeometry>
        </mxCell>
        <mxCell id="DxKRx8n1fIahk_dRX5iY-120" value="" style="endArrow=classic;html=1;rounded=0;exitX=0.25;exitY=1;exitDx=0;exitDy=0;entryX=0;entryY=0.5;entryDx=0;entryDy=0;strokeWidth=2;endSize=14;" edge="1" parent="DxKRx8n1fIahk_dRX5iY-1" source="DxKRx8n1fIahk_dRX5iY-117" target="DxKRx8n1fIahk_dRX5iY-125">
          <mxGeometry width="50" height="50" relative="1" as="geometry">
            <mxPoint x="200" y="1100" as="sourcePoint" />
            <mxPoint x="562.5" y="1100" as="targetPoint" />
            <Array as="points">
              <mxPoint x="175" y="1100" />
            </Array>
          </mxGeometry>
        </mxCell>
      </root>
    </mxGraphModel>
  </diagram>
</mxfile>
